<svg width="24" height="24" viewBox="0 0 24 24" fill="none" xmlns="http://www.w3.org/2000/svg">
<path fill-rule="evenodd" clip-rule="evenodd" d="M11.9999 2.5999C11.1681 2.5999 10.3614 2.70795 9.59334 2.91079C9.60722 3.00318 9.59954 3.09881 9.56911 3.18993C9.13617 4.48653 8.80143 5.80731 8.56488 7.1413C10.8467 6.8694 13.1532 6.86941 15.435 7.14131C15.1985 5.80732 14.8637 4.48654 14.4308 3.18993C14.3997 3.09687 14.3927 3.00157 14.4064 2.91078C13.6383 2.70795 12.8317 2.5999 11.9999 2.5999ZM15.6253 8.3745C13.219 8.05834 10.781 8.05834 8.37463 8.37449C8.05846 10.7809 8.05846 13.2189 8.37462 15.6253C10.7809 15.9414 13.219 15.9414 15.6253 15.6253C15.9414 13.2189 15.9414 10.7809 15.6253 8.3745ZM7.3176 7.31745C7.52227 6.06524 7.8096 4.8233 8.17958 3.5999H8C7.93985 3.5999 7.88177 3.59105 7.82699 3.57458C5.84831 4.55647 4.26476 6.21488 3.37884 8.24728C4.67364 7.84441 5.98985 7.53446 7.3176 7.31745ZM2.91079 9.59335C3.00157 9.60705 3.09687 9.60006 3.18993 9.56899C4.48658 9.13603 5.8074 8.80128 7.14144 8.56473C6.86952 10.8466 6.86952 13.1532 7.14143 15.435C5.8074 15.1985 4.48658 14.8637 3.18993 14.4308C3.09882 14.4004 3.0032 14.3927 2.91081 14.4066C2.70796 13.6384 2.5999 12.8318 2.5999 11.9999C2.5999 11.1681 2.70795 10.3615 2.91079 9.59335ZM16.8585 8.56475C18.1925 8.8013 19.5133 9.13604 20.8099 9.56899C20.9029 9.60006 20.9982 9.60705 21.089 9.59335C21.2919 10.3615 21.3999 11.1681 21.3999 11.9999C21.3999 12.8318 21.2918 13.6384 21.089 14.4066C20.9966 14.3927 20.901 14.4004 20.8099 14.4308C19.5133 14.8637 18.1925 15.1985 16.8585 15.435C17.1304 13.1532 17.1304 10.8466 16.8585 8.56475ZM20.621 8.24728C19.3262 7.84442 18.01 7.53448 16.6823 7.31747C16.4653 5.98976 16.1554 4.67359 15.7525 3.37883C17.9269 4.32662 19.6732 6.07291 20.621 8.24728ZM3.5999 15.9999C3.5999 16.06 3.59106 16.1181 3.5746 16.1728C4.48791 18.0133 5.98653 19.5119 7.827 20.4252C7.88178 20.4088 7.93985 20.3999 8 20.3999H8.17958C7.8096 19.1765 7.52227 17.9345 7.31759 16.6823C6.06534 16.4777 4.82334 16.1903 3.5999 15.8203V15.9999ZM15.435 16.8585C13.1532 17.1304 10.8467 17.1304 8.56487 16.8585C8.80142 18.1925 9.13617 19.5133 9.56911 20.8099C9.59954 20.901 9.60722 20.9966 9.59334 21.089C10.3614 21.2918 11.1681 21.3999 11.9999 21.3999C12.8317 21.3999 13.6383 21.2919 14.4064 21.089C14.3927 20.9982 14.3997 20.9029 14.4308 20.8099C14.8637 19.5133 15.1985 18.1925 15.435 16.8585ZM15.7525 20.621C16.1554 19.3262 16.4653 18.01 16.6823 16.6823C17.9345 16.4776 19.1765 16.1903 20.3999 15.8203V15.9999C20.3999 16.06 20.4088 16.1181 20.4252 16.1728C19.4433 18.1515 17.7849 19.7351 15.7525 20.621ZM1.3999 11.9999C1.3999 6.14568 6.14568 1.3999 11.9999 1.3999C17.8541 1.3999 22.5999 6.14568 22.5999 11.9999C22.5999 17.8541 17.8541 22.5999 11.9999 22.5999C6.14568 22.5999 1.3999 17.8541 1.3999 11.9999Z" fill="#656565"/>
</svg>
