<svg width="20" height="20" viewBox="0 0 20 20" fill="none" xmlns="http://www.w3.org/2000/svg">
<path fill-rule="evenodd" clip-rule="evenodd" d="M6.94843 2.84063C7.30965 2.62572 7.79461 2.74602 8.02442 3.12911L8.11278 3.28172L8.11345 3.28288C8.55245 4.04804 9.21525 4.56457 10.001 4.56457C10.7863 4.56457 11.451 4.04861 11.8941 3.2842L11.8942 3.28394L11.9839 3.12907C12.2137 2.74601 12.6987 2.62573 13.0599 2.84063L13.0598 2.8407L13.0686 2.84575L14.5103 3.67075L14.5106 3.67093C14.9789 3.93849 15.1399 4.54462 14.8721 5.00815C14.4293 5.77263 14.313 6.6055 14.7051 7.28602C15.0974 7.96667 15.8763 8.28332 16.7583 8.28332C17.2957 8.28332 17.7417 8.72507 17.7417 9.26665V10.7333C17.7417 11.2707 17.2999 11.7167 16.7583 11.7167C15.8763 11.7167 15.0974 12.0333 14.7051 12.7139C14.3132 13.3941 14.4291 14.2265 14.8715 14.9907C15.1411 15.4642 14.9777 16.0621 14.5106 16.329L14.5103 16.3292L13.0686 17.1542L13.0686 17.1542L13.0599 17.1593C12.6987 17.3742 12.2137 17.254 11.9839 16.8709L11.8955 16.7183L11.8948 16.7171C11.4559 15.9519 10.7931 15.4354 10.0073 15.4354C9.22203 15.4354 8.55728 15.9514 8.11421 16.7158L8.11406 16.716L8.02442 16.8709C7.79461 17.254 7.30965 17.3742 6.94843 17.1593L6.94847 17.1593L6.93966 17.1542L5.49799 16.3292L5.49767 16.329C5.02959 16.0616 4.86846 15.4557 5.13591 14.9923C5.579 14.2277 5.69542 13.3946 5.30317 12.7139C4.91094 12.0333 4.13198 11.7167 3.24998 11.7167C2.70841 11.7167 2.26665 11.2707 2.26665 10.7333V9.26665C2.26665 8.7293 2.70841 8.28332 3.24998 8.28332C4.13198 8.28332 4.91094 7.96667 5.30318 7.28602C5.69542 6.60537 5.579 5.77231 5.13591 5.00771C4.86846 4.54424 5.02959 3.93841 5.49767 3.67093L5.49799 3.67075L6.93966 2.84575L6.9397 2.84582L6.94843 2.84063ZM5.13591 5.00771C5.13586 5.00762 5.13581 5.00753 5.13576 5.00744L4.61665 5.30832L5.13617 5.00815C5.13608 5.008 5.136 5.00785 5.13591 5.00771ZM9.0573 2.51821C8.50404 1.58827 7.29351 1.24256 6.33962 1.80652L4.9023 2.62904L4.90201 2.62921L4.90198 2.62922C3.85379 3.22842 3.49834 4.57212 4.09713 5.60849L4.09755 5.6092C4.41266 6.15286 4.367 6.50718 4.26346 6.68686C4.15986 6.86664 3.87632 7.08332 3.24998 7.08332C2.04156 7.08332 1.06665 8.07067 1.06665 9.26665V10.7333C1.06665 11.9293 2.04156 12.9167 3.24998 12.9167C3.87632 12.9167 4.15986 13.1333 4.26346 13.3131C4.367 13.4928 4.41266 13.8471 4.09755 14.3908L4.09713 14.3915C3.49834 15.4279 3.85379 16.7715 4.90198 17.3707L4.9023 17.3709L6.33967 18.1935C7.29355 18.7574 8.50405 18.4117 9.0573 17.4818L9.05733 17.4818L9.06091 17.4756L9.15242 17.3175L9.15257 17.3173C9.46779 16.7736 9.7988 16.6354 10.0073 16.6354C10.2148 16.6354 10.5434 16.7725 10.8544 17.315L10.8557 17.3173L10.9474 17.4756L10.9474 17.4756L10.951 17.4818C11.5043 18.4117 12.7148 18.7574 13.6687 18.1934L15.106 17.3709L15.1063 17.3707C16.1552 16.7711 16.5085 15.4368 15.9126 14.394L15.9126 14.394L15.9108 14.3908C15.5956 13.8471 15.6413 13.4928 15.7448 13.3131C15.8484 13.1333 16.132 12.9167 16.7583 12.9167C17.9667 12.9167 18.9417 11.9293 18.9417 10.7333V9.26665C18.9417 8.05823 17.9543 7.08332 16.7583 7.08332C16.132 7.08332 15.8484 6.86664 15.7448 6.68686C15.6413 6.50718 15.5956 6.15286 15.9108 5.6092L15.9112 5.60849C16.51 4.57212 16.1545 3.22842 15.1063 2.62922L15.1062 2.62918L15.106 2.62904L13.6687 1.80652C12.7148 1.24255 11.5043 1.58827 10.951 2.51821L10.951 2.51819L10.9474 2.52436L10.8559 2.68244L10.8557 2.68269C10.5405 3.2264 10.2095 3.36457 10.001 3.36457C9.79345 3.36457 9.46486 3.22745 9.15385 2.68492L9.15386 2.68492L9.15257 2.6827L9.06091 2.52436L9.06094 2.52434L9.0573 2.51821ZM8.09998 9.99994C8.09998 8.9506 8.95064 8.09994 9.99998 8.09994C11.0493 8.09994 11.9 8.9506 11.9 9.99994C11.9 11.0493 11.0493 11.8999 9.99998 11.8999C8.95064 11.8999 8.09998 11.0493 8.09998 9.99994ZM9.99998 6.89994C8.2879 6.89994 6.89998 8.28785 6.89998 9.99994C6.89998 11.712 8.2879 13.0999 9.99998 13.0999C11.7121 13.0999 13.1 11.712 13.1 9.99994C13.1 8.28785 11.7121 6.89994 9.99998 6.89994Z" fill="#A9A5F0"/>
</svg>
