<svg width="16" height="16" viewBox="0 0 16 16" fill="none" xmlns="http://www.w3.org/2000/svg">
<path fill-rule="evenodd" clip-rule="evenodd" d="M6.4035 2.53865L6.40348 2.53874L6.31509 3.06506C6.64955 3.05662 6.98401 3.05241 7.31848 3.05241C8.10732 3.05241 8.89691 3.0665 9.68639 3.0944L9.59356 2.54587L9.59296 2.54231L9.59297 2.54231C9.53605 2.19322 9.50304 2.10157 9.46031 2.05233L9.45999 2.05196C9.45012 2.04048 9.35719 1.93242 8.87181 1.93242H7.12515C6.63243 1.93242 6.54255 2.03744 6.53623 2.04483L6.536 2.0451C6.52519 2.05736 6.50331 2.0881 6.4782 2.17168C6.45097 2.26226 6.43167 2.3714 6.40353 2.53846L6.4035 2.53865ZM5.2201 2.33972L5.08993 3.1148C4.49295 3.14822 3.89599 3.19508 3.29907 3.25536L1.93994 3.3886C1.61015 3.42094 1.36901 3.7145 1.40134 4.04428C1.43368 4.37407 1.72723 4.61521 2.05702 4.58288L3.41702 4.44955L3.41702 4.44955L3.41878 4.44937C4.71885 4.31805 6.01872 4.25241 7.31848 4.25241C9.52485 4.25241 11.7384 4.36471 13.9393 4.58282C14.2691 4.6155 14.5629 4.37467 14.5956 4.04491C14.6282 3.71516 14.3874 3.42135 14.0577 3.38867C13.0117 3.28501 11.9627 3.20482 10.9127 3.14879L10.777 2.34748L10.7703 2.30532C10.7271 2.03573 10.6576 1.60108 10.3666 1.26585C10.0247 0.871741 9.50726 0.732422 8.87181 0.732422H7.12515C6.49869 0.732422 5.98038 0.860849 5.63597 1.25141C5.34502 1.58134 5.27359 2.01522 5.22848 2.28918L5.22015 2.33944L5.2201 2.33972ZM4.0305 6.05378C4.00916 5.7231 3.72378 5.47233 3.3931 5.49368C3.06242 5.51502 2.81165 5.8004 2.833 6.13108L3.26632 12.8444L3.26655 12.8477L3.26762 12.863C3.28505 13.112 3.30475 13.3934 3.35773 13.6564C3.41304 13.9311 3.51189 14.2281 3.71591 14.4937C4.14551 15.0531 4.86796 15.2658 5.85842 15.2658H10.1384C11.1289 15.2658 11.8513 15.0531 12.2809 14.4937C12.4849 14.2281 12.5838 13.9311 12.6391 13.6564C12.6921 13.3934 12.7118 13.112 12.7292 12.8631V12.863L12.7303 12.8477L12.7303 12.8477L12.7305 12.8444L13.1638 6.13108C13.1852 5.8004 12.9344 5.51502 12.6037 5.49368C12.273 5.47233 11.9877 5.7231 11.9663 6.05378L11.5332 12.7638L11.5331 12.7655C11.5142 13.0353 11.4986 13.2414 11.4627 13.4195C11.428 13.5917 11.3819 13.6942 11.3292 13.7628C11.2455 13.8718 11.008 14.0658 10.1384 14.0658H5.85842C4.98887 14.0658 4.75132 13.8718 4.66759 13.7628C4.61494 13.6942 4.56879 13.5917 4.53411 13.4195C4.49825 13.2414 4.48264 13.0353 4.46373 12.7655L4.0305 6.05378ZM6.2852 10.9991C6.2852 10.6677 6.55383 10.3991 6.8852 10.3991H9.1052C9.43657 10.3991 9.7052 10.6677 9.7052 10.9991C9.7052 11.3305 9.43657 11.5991 9.1052 11.5991H6.8852C6.55383 11.5991 6.2852 11.3305 6.2852 10.9991ZM6.33181 7.73242C6.00044 7.73242 5.73181 8.00105 5.73181 8.33242C5.73181 8.66379 6.00044 8.93242 6.33181 8.93242H9.66515C9.99652 8.93242 10.2651 8.66379 10.2651 8.33242C10.2651 8.00105 9.99652 7.73242 9.66515 7.73242H6.33181Z" fill="#BF3D17"/>
</svg>
