<svg width="24" height="24" viewBox="0 0 24 24" fill="none" xmlns="http://www.w3.org/2000/svg">
<path d="M11.999 2C6.48902 2 1.99902 6.49 1.99902 12C1.99902 17.51 6.48902 22 11.999 22C17.509 22 21.999 17.51 21.999 12C21.999 6.49 17.509 2 11.999 2Z" fill="#2D99FF"/>
<path d="M11.999 17C12.409 17 12.749 16.66 12.749 16.25L12.749 11.25C12.749 10.84 12.409 10.5 11.999 10.5C11.589 10.5 11.249 10.84 11.249 11.25L11.249 16.25C11.249 16.66 11.589 17 11.999 17Z" fill="white"/>
<path d="M11.289 7.54C11.199 7.64 11.129 7.74 11.079 7.87C11.029 7.99 10.999 8.12 10.999 8.25C10.999 8.38 11.029 8.51 11.079 8.63C11.129 8.75 11.199 8.86 11.289 8.96C11.389 9.05 11.499 9.12 11.619 9.17C11.859 9.27 12.139 9.27 12.379 9.17C12.499 9.12 12.609 9.05 12.709 8.96C12.799 8.86 12.869 8.75 12.919 8.63C12.969 8.51 12.999 8.38 12.999 8.25C12.999 8.12 12.969 7.99 12.919 7.87C12.869 7.74 12.799 7.64 12.709 7.54C12.609 7.45 12.499 7.38 12.379 7.33C12.259 7.28 12.129 7.25 11.999 7.25C11.869 7.25 11.739 7.28 11.619 7.33C11.499 7.38 11.389 7.45 11.289 7.54Z" fill="white"/>
</svg>
