<svg width="16" height="16" viewBox="0 0 16 16" fill="none" xmlns="http://www.w3.org/2000/svg">
<path fill-rule="evenodd" clip-rule="evenodd" d="M10.3327 0.859034C11.1501 0.754511 11.9654 1.09154 12.7783 1.85638L12.7794 1.85742C13.5948 2.62856 13.9807 3.42549 13.9232 4.24936C13.8678 5.04165 13.4093 5.7041 12.903 6.23899L12.9028 6.23917L12.0625 7.12865C12.0234 7.18828 11.9741 7.24024 11.9173 7.2823L7.4331 12.0287C7.26876 12.2075 7.05094 12.3558 6.84835 12.4641C6.64274 12.5741 6.40197 12.6699 6.17214 12.7108L6.16814 12.7115L6.16814 12.7115L4.0224 13.078L4.02195 13.078C3.47499 13.1722 2.94304 13.0361 2.56175 12.6745C2.18096 12.3134 2.01639 11.79 2.07746 11.2404L2.07766 11.2386L2.32433 9.07861L2.32561 9.06738L2.32572 9.06739C2.35624 8.83843 2.44031 8.59486 2.53751 8.38643C2.6343 8.17888 2.76809 7.9547 2.92981 7.78255L2.93098 7.78131L7.48242 2.96377C7.48815 2.95744 7.49401 2.95123 7.50001 2.94515L8.40432 1.98797L8.40473 1.98754C8.91129 1.45244 9.54671 0.959539 10.3327 0.859034ZM12.031 5.41464L11.326 6.16089C9.97442 5.90871 8.89614 4.88857 8.57522 3.55445L9.27618 2.81251L9.27629 2.81239C9.71635 2.34756 10.1109 2.09717 10.4849 2.04934C10.8274 2.00554 11.3019 2.11512 11.9555 2.7299C12.6129 3.35179 12.7502 3.82133 12.7261 4.16568C12.6998 4.54164 12.4717 4.94913 12.0314 5.4142L12.031 5.41464ZM3.80443 8.60416L7.64012 4.54421C8.14845 5.76056 9.15087 6.70702 10.3928 7.14862L6.55765 11.208L6.55758 11.2079L6.55041 11.2158C6.50855 11.2617 6.41496 11.3351 6.28256 11.4059C6.15247 11.4755 6.03403 11.5162 5.96367 11.529L5.9621 11.5293L3.81943 11.8953L3.81851 11.8954C3.5923 11.9344 3.45776 11.8705 3.38749 11.8038C3.3167 11.7367 3.24468 11.6037 3.27003 11.3737L3.27012 11.3729L3.5158 9.22163C3.52612 9.14997 3.5619 9.02906 3.62506 8.89361C3.68975 8.7549 3.75908 8.6526 3.80404 8.60458L3.80443 8.60416ZM2.00039 14.0667C1.66902 14.0667 1.40039 14.3353 1.40039 14.6667C1.40039 14.9981 1.66902 15.2667 2.00039 15.2667H14.0004C14.3318 15.2667 14.6004 14.9981 14.6004 14.6667C14.6004 14.3353 14.3318 14.0667 14.0004 14.0667H2.00039Z" fill="#656565"/>
</svg>
