<svg width="20" height="20" viewBox="0 0 24 24" fill="none" xmlns="http://www.w3.org/2000/svg">
<path fill-rule="evenodd" clip-rule="evenodd" d="M6.27789 7.66511C5.90737 8.0253 5.90737 8.60927 6.27789 8.96945C6.6484 9.32964 7.24913 9.32963 7.61965 8.96945L11.7775 4.92754C11.8279 4.87859 11.9057 4.84461 12 4.84461C12.0943 4.84461 12.1721 4.87859 12.2225 4.92754L16.3804 8.96945C16.7509 9.32963 17.3516 9.32963 17.7221 8.96945C18.0926 8.60927 18.0926 8.0253 17.7221 7.66511L13.5642 3.6232C12.7095 2.79227 11.2905 2.79227 10.4358 3.6232L6.27789 7.66511Z" fill="#D2D2D2"/>
<path d="M7.61965 15.0309C7.24913 14.6707 6.6484 14.6707 6.27789 15.0309C5.90737 15.3911 5.90737 15.975 6.27789 16.3352L10.4358 20.3771C11.2905 21.2081 12.7095 21.2081 13.5642 20.3771L17.7221 16.3352C18.0926 15.975 18.0926 15.3911 17.7221 15.0309C17.3516 14.6707 16.7509 14.6707 16.3804 15.0309L12.2225 19.0728C12.1721 19.1217 12.0943 19.1557 12 19.1557C11.9057 19.1557 11.8279 19.1217 11.7775 19.0728L7.61965 15.0309Z" fill="#D2D2D2"/>
</svg>
